<svg width="384" height="315" viewBox="0 0 384 315" fill="none" xmlns="http://www.w3.org/2000/svg">
<g id="No Results">
<g id="circle">
<path id="Stroke 1" d="M11.9788 143.312V146.557" stroke="#D2D8DF" stroke-width="3.16029" stroke-linecap="round"/>
<g id="Group 8">
<path id="Stroke 2" d="M4.68237 145.072L7.33462 147.803" stroke="#D2D8DF" stroke-width="3.16029" stroke-linecap="round"/>
<path id="Stroke 4" d="M1.57983 152.336H5.33007" stroke="#D2D8DF" stroke-width="3.16029" stroke-linecap="round"/>
<path id="Stroke 6" d="M4.37622 159.737L7.02847 157.006" stroke="#D2D8DF" stroke-width="3.16029" stroke-linecap="round"/>
</g>
<path id="Stroke 9" d="M11.9788 160.621V157.375" stroke="#D2D8DF" stroke-width="3.16029" stroke-linecap="round"/>
<path id="Stroke 10" d="M17.3814 158.46L15.2175 156.296" stroke="#D2D8DF" stroke-width="3.16029" stroke-linecap="round"/>
<path id="Stroke 11" d="M21.7101 153.05H18.4644" stroke="#D2D8DF" stroke-width="3.16029" stroke-linecap="round"/>
<path id="Stroke 12" d="M19.5486 145.475L17.3848 147.639" stroke="#D2D8DF" stroke-width="3.16029" stroke-linecap="round"/>
<path id="Stroke 13" d="M186.168 1.58057V3.7444" stroke="#D2D8DF" stroke-width="3.16029" stroke-linecap="round"/>
<path id="Stroke 15" d="M179.675 8.07129H181.839" stroke="#D2D8DF" stroke-width="3.16029" stroke-linecap="round"/>
<path id="Stroke 16" d="M186.168 14.5652V12.4014" stroke="#D2D8DF" stroke-width="3.16029" stroke-linecap="round"/>
<path id="Stroke 17" d="M191.58 8.07129H189.416" stroke="#D2D8DF" stroke-width="3.16029" stroke-linecap="round"/>
<path id="Stroke 18" d="M60.6606 92.4624V95.7082" stroke="#D2D8DF" stroke-width="3.16029" stroke-linecap="round"/>
<path id="Stroke 19" d="M50.9275 102.199H54.1732" stroke="#D2D8DF" stroke-width="3.16029" stroke-linecap="round"/>
<path id="Stroke 20" d="M60.6606 110.852V107.606" stroke="#D2D8DF" stroke-width="3.16029" stroke-linecap="round"/>
<path id="Stroke 21" d="M69.3212 102.199H66.0754" stroke="#D2D8DF" stroke-width="3.16029" stroke-linecap="round"/>
<g id="Group 42">
<path id="Stroke 22" d="M293.56 210.426C296.146 210.426 298.243 212.524 298.243 215.11C298.243 217.697 296.146 219.794 293.56 219.794C290.974 219.794 288.877 217.697 288.877 215.11" stroke="#D2D8DF" stroke-width="3.16029" stroke-linecap="round"/>
<path id="Fill 26" fill-rule="evenodd" clip-rule="evenodd" d="M314.99 167.941C317.771 167.074 322.033 163.674 323.019 160.015C323.914 163.249 327.664 167.074 331.048 167.363C327.239 168.712 323.597 172.719 323.019 175.866C322.626 172.658 317.589 168.409 314.99 167.941Z" fill="#EBECEE"/>
<path id="Fill 28" fill-rule="evenodd" clip-rule="evenodd" d="M29.5898 208.988C30.9805 208.554 33.1105 206.855 33.6037 205.025C34.051 206.641 35.9257 208.554 37.6176 208.699C35.7135 209.373 33.893 211.377 33.6037 212.95C33.4071 211.346 30.8886 209.221 29.5898 208.988Z" fill="#EBECEE"/>
<path id="Fill 30" fill-rule="evenodd" clip-rule="evenodd" d="M55.3906 58.4843C55.3906 60.4909 53.7648 62.1161 51.7598 62.1161C49.7537 62.1161 48.1289 60.4909 48.1289 58.4843C48.1289 56.4787 49.7537 54.8525 51.7598 54.8525C53.7648 54.8525 55.3906 56.4787 55.3906 58.4843Z" fill="#D1D8DF"/>
<path id="Fill 32" fill-rule="evenodd" clip-rule="evenodd" d="M297.845 68.2366C297.845 71.5891 295.127 74.3068 291.776 74.3068C288.424 74.3068 285.707 71.5891 285.707 68.2366C285.707 64.8841 288.424 62.1665 291.776 62.1665C295.127 62.1665 297.845 64.8841 297.845 68.2366Z" fill="#EBECEE"/>
<path id="Fill 34" fill-rule="evenodd" clip-rule="evenodd" d="M381.91 51.7927C381.91 54.4524 379.755 56.6078 377.097 56.6078C374.438 56.6078 372.283 54.4524 372.283 51.7927C372.283 49.1329 374.438 46.9775 377.097 46.9775C379.755 46.9775 381.91 49.1329 381.91 51.7927Z" fill="#EBECEE"/>
<path id="Stroke 36" fill-rule="evenodd" clip-rule="evenodd" d="M123.255 276.671C123.255 278.348 121.897 279.707 120.221 279.707C118.545 279.707 117.187 278.348 117.187 276.671C117.187 274.995 118.545 273.636 120.221 273.636C121.897 273.636 123.255 274.995 123.255 276.671Z" stroke="#D2D8DF" stroke-width="1.05343" stroke-linecap="round"/>
<path id="Stroke 38" fill-rule="evenodd" clip-rule="evenodd" d="M121.448 35.1508C121.448 37.1574 119.822 38.7826 117.817 38.7826C115.812 38.7826 114.186 37.1574 114.186 35.1508C114.186 33.1452 115.812 31.519 117.817 31.519C119.822 31.519 121.448 33.1452 121.448 35.1508Z" stroke="#D2D8DF" stroke-width="1.05343" stroke-linecap="round"/>
<path id="Stroke 40" fill-rule="evenodd" clip-rule="evenodd" d="M214.065 310.288C211.745 311.171 209.148 310.005 208.265 307.685C207.383 305.365 208.547 302.766 210.869 301.884C213.188 301.002 215.784 302.167 216.667 304.487C217.551 306.808 216.385 309.405 214.065 310.288Z" stroke="#D2D8DF" stroke-width="1.05343" stroke-linecap="round"/>
</g>
</g>
<g id="search">
<g id="documents">
<path id="Fill 1" fill-rule="evenodd" clip-rule="evenodd" d="M212.678 224.459H123.956C117.711 224.459 112.6 219.332 112.6 213.066V86.5437C112.6 80.278 117.711 75.1538 123.956 75.1538H212.678C218.926 75.1538 224.037 80.278 224.037 86.5437V213.066C224.037 219.332 218.926 224.459 212.678 224.459Z" fill="#E0E2EE"/>
<path id="Fill 3" fill-rule="evenodd" clip-rule="evenodd" d="M205.104 229.865H116.382C110.137 229.865 105.026 224.739 105.026 218.473V91.9504C105.026 85.6847 110.137 80.5605 116.382 80.5605H205.104C211.352 80.5605 216.463 85.6847 216.463 91.9504V218.473C216.463 224.739 211.352 229.865 205.104 229.865Z" fill="#E8EBF2"/>
<path id="Fill 5" fill-rule="evenodd" clip-rule="evenodd" d="M197.737 234.138H108.831C102.574 234.138 97.4517 229.033 97.4517 222.793V96.7944C97.4517 90.5546 102.574 85.4517 108.831 85.4517H197.737C203.997 85.4517 209.12 90.5546 209.12 96.7944V222.793C209.12 229.033 203.997 234.138 197.737 234.138Z" fill="#D8DBEA"/>
<path id="Fill 8" fill-rule="evenodd" clip-rule="evenodd" d="M197.737 234.138H108.831C102.574 234.138 97.4517 229.033 97.4517 222.793V96.7944C97.4517 90.5546 102.574 85.4517 108.831 85.4517H197.737C203.997 85.4517 209.12 90.5546 209.12 96.7944V222.793C209.12 229.033 203.997 234.138 197.737 234.138Z" fill="#F1F2F7"/>
<path id="Fill 11" fill-rule="evenodd" clip-rule="evenodd" d="M184.925 123.842H119.257C117.382 123.842 115.846 122.381 115.846 120.597C115.846 118.811 117.382 117.35 119.257 117.35H184.925C186.8 117.35 188.335 118.811 188.335 120.597C188.335 122.381 186.8 123.842 184.925 123.842Z" fill="#E0E2EE"/>
<path id="Fill 13" fill-rule="evenodd" clip-rule="evenodd" d="M184.925 143.311H119.257C117.382 143.311 115.846 141.85 115.846 140.066C115.846 138.28 117.382 136.819 119.257 136.819H184.925C186.8 136.819 188.335 138.28 188.335 140.066C188.335 141.85 186.8 143.311 184.925 143.311Z" fill="#E0E2EE"/>
<path id="Fill 15" fill-rule="evenodd" clip-rule="evenodd" d="M184.925 162.79H119.257C117.382 162.79 115.846 161.33 115.846 159.546C115.846 157.762 117.382 156.299 119.257 156.299H184.925C186.8 156.299 188.335 157.762 188.335 159.546C188.335 161.33 186.8 162.79 184.925 162.79Z" fill="#E0E2EE"/>
<path id="Fill 17" fill-rule="evenodd" clip-rule="evenodd" d="M184.925 182.264H119.257C117.382 182.264 115.846 180.804 115.846 179.019C115.846 177.233 117.382 175.772 119.257 175.772H184.925C186.8 175.772 188.335 177.233 188.335 179.019C188.335 180.804 186.8 182.264 184.925 182.264Z" fill="#E0E2EE"/>
<path id="Fill 19" fill-rule="evenodd" clip-rule="evenodd" d="M153.534 201.739H119.271C117.388 201.739 115.846 200.279 115.846 198.495C115.846 196.708 117.388 195.248 119.271 195.248H153.534C155.418 195.248 156.959 196.708 156.959 198.495C156.959 200.279 155.418 201.739 153.534 201.739Z" fill="#E0E2EE"/>
</g>
<g id="search_2">
<path id="Fill 21" fill-rule="evenodd" clip-rule="evenodd" d="M222.687 176.566C209.556 189.695 189.228 191.176 174.469 181.04C172.583 179.721 170.788 178.24 169.114 176.566C168.252 175.707 167.44 174.821 166.675 173.888C165.144 172.024 163.803 170.036 162.704 167.983C160.769 164.514 159.452 160.833 158.734 157.029C156.415 145.098 159.882 132.255 169.114 123.028C178.368 113.772 191.213 110.328 203.146 112.624C206.949 113.365 210.633 114.681 214.102 116.594C216.159 117.717 218.119 119.058 219.986 120.588C220.916 121.351 221.803 122.166 222.662 123.028C224.339 124.701 225.842 126.493 227.136 128.382C237.277 143.135 235.793 163.462 222.687 176.566Z" fill="white" fill-opacity="0.1"/>
<path id="Fill 23" fill-rule="evenodd" clip-rule="evenodd" d="M219.01 173.978C205.349 187.641 183.21 187.638 169.547 173.978C155.901 160.332 155.901 138.191 169.565 124.53C183.21 110.884 205.349 110.884 218.995 124.53C232.656 138.191 232.656 160.332 219.01 173.978ZM226.028 117.51C208.493 99.9746 180.078 99.9746 162.543 117.51C145.011 135.042 144.995 163.475 162.528 181.01C178.487 196.964 203.501 198.403 221.094 185.304C222.813 184.022 224.467 182.586 226.046 181.01C227.622 179.431 229.058 177.777 230.337 176.058C243.436 158.462 241.985 133.466 226.028 117.51Z" fill="#E0E2EE"/>
<path id="Fill 25" fill-rule="evenodd" clip-rule="evenodd" d="M295.041 247.111L294.305 247.847C289.435 252.72 281.459 252.72 276.586 247.847L231.617 202.877L250.071 184.422L295.041 229.392C299.914 234.265 299.914 242.238 295.041 247.111Z" fill="url(#paint0_linear_2077_16847)"/>
<path id="Fill 27" fill-rule="evenodd" clip-rule="evenodd" d="M231.306 174.686L244.595 187.974L235.161 197.406L221.875 184.117C223.628 182.81 225.314 181.344 226.928 179.736C228.536 178.128 230.002 176.439 231.306 174.686Z" fill="#E0E2EE"/>
<path id="Fill 29" fill-rule="evenodd" clip-rule="evenodd" d="M294.363 228.843L276.026 247.177L272.725 243.874L291.059 225.539L294.363 228.843Z" fill="#EF545F"/>
<path id="Fill 31" fill-rule="evenodd" clip-rule="evenodd" d="M251.087 185.055L232.248 203.894L229.449 201.096L248.288 182.256L251.087 185.055Z" fill="url(#paint1_linear_2077_16847)"/>
<path id="Fill 33" fill-rule="evenodd" clip-rule="evenodd" d="M209.973 119.826L163.771 166.026C162.031 162.907 160.848 159.598 160.205 156.178L200.125 116.257C203.543 116.926 206.855 118.106 209.973 119.826Z" fill="white" fill-opacity="0.5"/>
<path id="Fill 35" fill-rule="evenodd" clip-rule="evenodd" d="M225.112 130.813L175.163 177.932C173.374 176.755 171.671 175.429 170.084 173.932C169.266 173.161 168.493 172.37 167.77 171.535L218.328 123.836C219.213 124.521 220.054 125.25 220.868 126.022C222.456 127.519 223.884 129.123 225.112 130.813Z" fill="white" fill-opacity="0.5"/>
</g>
</g>
</g>
<defs>
<linearGradient id="paint0_linear_2077_16847" x1="265.156" y1="150.883" x2="198.077" y2="217.962" gradientUnits="userSpaceOnUse">
<stop stop-color="#FF8960"/>
<stop offset="1" stop-color="#FF62A5"/>
</linearGradient>
<linearGradient id="paint1_linear_2077_16847" x1="240.268" y1="171.437" x2="218.63" y2="193.075" gradientUnits="userSpaceOnUse">
<stop stop-color="#FF404E"/>
<stop offset="1" stop-color="#FF62A5"/>
</linearGradient>
</defs>
</svg>
