<svg width="36" height="36" viewBox="0 0 36 36" fill="none" xmlns="http://www.w3.org/2000/svg">
<g filter="url(#filter0_d_4414_5827)">
<rect width="36" height="36" rx="12" fill="#FFE5E5" shape-rendering="crispEdges"/>
<path d="M12.6167 24.2667C12.1083 24.2667 11.6333 24.0917 11.2917 23.7667C10.8583 23.3583 10.65 22.7417 10.725 22.075L11.0333 19.375C11.0917 18.8667 11.4 18.1917 11.7583 17.825L18.6 10.5833C20.3083 8.77501 22.0917 8.72501 23.9 10.4333C25.7083 12.1417 25.7583 13.925 24.05 15.7333L17.2083 22.975C16.8583 23.35 16.2083 23.7 15.7 23.7833L13.0167 24.2417C12.875 24.25 12.75 24.2667 12.6167 24.2667ZM21.275 10.425C20.6333 10.425 20.075 10.825 19.5083 11.425L12.6667 18.675C12.5 18.85 12.3083 19.2667 12.275 19.5083L11.9667 22.2083C11.9333 22.4833 12 22.7083 12.15 22.85C12.3 22.9917 12.525 23.0417 12.8 23L15.4833 22.5417C15.725 22.5 16.125 22.2833 16.2917 22.1083L23.1333 14.8667C24.1667 13.7667 24.5417 12.75 23.0333 11.3333C22.3667 10.6917 21.7917 10.425 21.275 10.425Z" fill="#880000"/>
<path d="M22.4502 17.125C22.4335 17.125 22.4085 17.125 22.3919 17.125C19.7919 16.8667 17.7002 14.8917 17.3002 12.3083C17.2502 11.9667 17.4835 11.65 17.8252 11.5917C18.1669 11.5417 18.4835 11.775 18.5419 12.1167C18.8585 14.1333 20.4919 15.6833 22.5252 15.8833C22.8669 15.9167 23.1169 16.225 23.0835 16.5667C23.0419 16.8833 22.7669 17.125 22.4502 17.125Z" fill="#880000"/>
<path d="M25.5 26.9583H10.5C10.1583 26.9583 9.875 26.675 9.875 26.3333C9.875 25.9917 10.1583 25.7083 10.5 25.7083H25.5C25.8417 25.7083 26.125 25.9917 26.125 26.3333C26.125 26.675 25.8417 26.9583 25.5 26.9583Z" fill="#880000"/>
</g>
<defs>
<filter id="filter0_d_4414_5827" x="0" y="0" width="36" height="36" filterUnits="userSpaceOnUse" color-interpolation-filters="sRGB">
<feFlood flood-opacity="0" result="BackgroundImageFix"/>
<feColorMatrix in="SourceAlpha" type="matrix" values="0 0 0 0 0 0 0 0 0 0 0 0 0 0 0 0 0 0 127 0" result="hardAlpha"/>
<feOffset/>
<feComposite in2="hardAlpha" operator="out"/>
<feColorMatrix type="matrix" values="0 0 0 0 0 0 0 0 0 0 0 0 0 0 0 0 0 0 0.1 0"/>
<feBlend mode="normal" in2="BackgroundImageFix" result="effect1_dropShadow_4414_5827"/>
<feBlend mode="normal" in="SourceGraphic" in2="effect1_dropShadow_4414_5827" result="shape"/>
</filter>
</defs>
</svg>
